<svg id="Layer_1" data-name="Layer 1" xmlns="http://www.w3.org/2000/svg" viewBox="0 0 50 50"><defs><style>.cls-1{fill:none;stroke:#ed7d31;stroke-linecap:round;stroke-linejoin:round;stroke-width:3px;}</style></defs><path class="cls-1" d="M36.34,31.47a4.55,4.55,0,0,0,8,2,1.9,1.9,0,0,1,1.48-.75h0a1.65,1.65,0,0,1,1.66,1.65V47.5H34.39a1.65,1.65,0,0,1-1.65-1.65h0a1.94,1.94,0,0,1,.74-1.49,4.56,4.56,0,1,0-5.74,0,1.93,1.93,0,0,1,.75,1.5h0a1.65,1.65,0,0,1-1.65,1.65H13.74V34.4a1.65,1.65,0,0,0-1.65-1.65h0a1.94,1.94,0,0,0-1.5.76,4.56,4.56,0,1,1,0-5.77,1.92,1.92,0,0,0,1.5.77h0a1.65,1.65,0,0,0,1.65-1.66V13.73h13.1a1.65,1.65,0,0,0,1.65-1.65h0a1.93,1.93,0,0,0-.76-1.5,4.56,4.56,0,1,1,7.44-3.52,4.49,4.49,0,0,1-1.67,3.51,1.93,1.93,0,0,0-.76,1.51h0a1.65,1.65,0,0,0,1.65,1.65h13.1V26.85a1.66,1.66,0,0,1-1.66,1.66h0a1.94,1.94,0,0,1-1.5-.76,4.55,4.55,0,0,0-8,3.72Z"/></svg>