<svg id="Layer_1" data-name="Layer 1" xmlns="http://www.w3.org/2000/svg" viewBox="0 0 50 50"><defs><style>.cls-1{fill:none;stroke:#7030a0;stroke-linecap:round;stroke-linejoin:round;stroke-width:3px;}</style></defs><path class="cls-1" d="M15.73,16.61,13,16V13l2.73-.65A9.12,9.12,0,0,1,17,9.44"/><path class="cls-1" d="M17,9.44,15.48,7.06,17.56,5l2.38,1.48a9.2,9.2,0,0,1,2.94-1.22l.65-2.73h2.94l.65,2.73a9.2,9.2,0,0,1,2.94,1.22L32.44,5l2.08,2.09L33,9.44a9.12,9.12,0,0,1,1.23,2.94L37,13V16l-2.73.64A9.12,9.12,0,0,1,33,19.55l1.48,2.39L32.44,24l-2.38-1.48a9,9,0,0,1-2.94,1.22l-.65,2.73H23.53l-.65-2.73a9,9,0,0,1-2.94-1.22L17.56,24l-2.08-2.08L17,19.55a9.12,9.12,0,0,1-1.23-2.94"/><circle class="cls-1" cx="25" cy="14.5" r="4.11"/><path class="cls-1" d="M42.46,39.1v8.4H7.54V39.1a9.81,9.81,0,0,1,9.81-9.81h.75a8.8,8.8,0,0,0,13.8,0h.75A9.81,9.81,0,0,1,42.46,39.1Z"/><line class="cls-1" x1="34.15" y1="47.5" x2="34.15" y2="41.8"/><line class="cls-1" x1="15.85" y1="47.5" x2="15.85" y2="41.8"/></svg>