<svg id="Layer_1" data-name="Layer 1" xmlns="http://www.w3.org/2000/svg" viewBox="0 0 50 50"><defs><style>.cls-1{fill:none;stroke:#e75480;stroke-linecap:round;stroke-linejoin:round;stroke-width:3px;}</style></defs><path class="cls-1" d="M22.48,27.52c3.15,3.16,9,7,10.3,5.74l2.57-2.58a4.32,4.32,0,0,1,6.11,0l4.77,4.77a4.32,4.32,0,0,1,0,6.11l-4.48,4.49c-4.17,4.16-16-.92-26.44-11.36A52.72,52.72,0,0,1,4.16,19.12C2.1,14.33,1.87,10.33,4,8.25L8.44,3.77a4.32,4.32,0,0,1,6.11,0l4.77,4.77a4.32,4.32,0,0,1,0,6.11l-2.58,2.57C15.48,18.48,19.32,24.37,22.48,27.52Z"/></svg>