<svg id="Layer_1" data-name="Layer 1" xmlns="http://www.w3.org/2000/svg" viewBox="0 0 50 50"><defs><style>.cls-1{fill:none;stroke:#000;stroke-linecap:round;stroke-linejoin:round;stroke-width:3px;}</style></defs><path class="cls-1" d="M15.22,35.91A10.39,10.39,0,0,1,25.61,25.52h0A10.4,10.4,0,0,1,36,35.91"/><path class="cls-1" d="M30.58,19.92a5,5,0,1,1-5-5A5,5,0,0,1,30.58,19.92Z"/><path class="cls-1" d="M3.12,33.56A8.08,8.08,0,0,1,16.9,27.85a7.71,7.71,0,0,1,1,1.17"/><path class="cls-1" d="M15.05,21.14a3.86,3.86,0,1,1-3.85-3.87A3.85,3.85,0,0,1,15.05,21.14Z"/><path class="cls-1" d="M33.39,29a7.71,7.71,0,0,1,1-1.17,8.08,8.08,0,0,1,13.78,5.71"/><path class="cls-1" d="M36.2,21.14a3.86,3.86,0,1,0,3.85-3.87A3.85,3.85,0,0,0,36.2,21.14Z"/></svg>