<svg id="Layer_1" data-name="Layer 1" xmlns="http://www.w3.org/2000/svg" viewBox="0 0 50 50"><defs><style>.cls-1{fill:none;stroke:#538135;stroke-linecap:round;stroke-linejoin:round;stroke-width:3px;}</style></defs><rect class="cls-1" x="13.4" y="20.78" width="23.21" height="17.49" rx="2.39"/><path class="cls-1" d="M33.86,20.78H28.54V13.9a3.65,3.65,0,0,0-3.19-3.68,3.55,3.55,0,0,0-3.89,3.53v7H16.14V14.1a9.09,9.09,0,0,1,8.29-9.19,8.86,8.86,0,0,1,9.43,8.84Z"/><line class="cls-1" x1="36.6" y1="29.53" x2="42.63" y2="29.53"/><circle class="cls-1" cx="45.07" cy="29.53" r="2.43"/><polyline class="cls-1" points="36.6 23.17 42 23.17 42 18.81"/><circle class="cls-1" cx="42" cy="16.38" r="2.43"/><polyline class="cls-1" points="36.6 35.88 42 35.88 42 40.24"/><circle class="cls-1" cx="42" cy="42.68" r="2.43"/><line class="cls-1" x1="13.4" y1="29.53" x2="7.37" y2="29.53"/><circle class="cls-1" cx="4.93" cy="29.53" r="2.43"/><polyline class="cls-1" points="13.39 35.88 8 35.88 8 40.24"/><circle class="cls-1" cx="8" cy="42.68" r="2.43"/><polyline class="cls-1" points="13.39 23.17 8 23.17 8 18.81"/><circle class="cls-1" cx="8" cy="16.38" r="2.43"/><line class="cls-1" x1="25" y1="27.85" x2="25" y2="31.2"/></svg>